<?xml version="1.0" encoding="UTF-8"?><svg id="Layer_1" xmlns="http://www.w3.org/2000/svg" viewBox="0 0 111 30"><defs><style>.cls-1{fill:#ed2024;}</style></defs><path class="cls-1" d="m105.06,14.28l5.94,15.72c-1.75-.25-3.5-.56-5.28-.84l-3.34-8.69-3.44,7.97c-1.69-.28-3.34-.38-5.03-.59l6.03-13.75-5.47-14.09h5.06l3.06,7.87,3.28-7.87h5.12l-5.94,14.28ZM90.47,0h-4.59v27.25c1.5.09,3.06.16,4.59.34V0Zm-8.56,26.94c-4.19-.28-8.37-.53-12.66-.63V0h4.69v21.87c2.69.06,5.38.28,7.97.41v4.66Zm-17.66-16.28v4.69h-6.41v10.66h-4.63V0h13.12v4.69h-8.5v5.97h6.41Zm-18.91-5.97v21.56c-1.56,0-3.16,0-4.69.06V4.69h-4.84V0h14.41v4.69h-4.87Zm-14.59,10.91c-2.06,0-4.5,0-6.25.09v6.97c2.75-.19,5.5-.41,8.28-.5v4.5l-12.97,1.03V0h12.97v4.69h-8.28v6.31c1.81,0,4.59-.09,6.25-.09v4.69Zm-25.97-2.62v16.37c-1.69.19-3.19.41-4.78.66V0h4.47l6.09,17.03V0h4.69v28.06c-1.66.28-3.34.38-5.13.63l-5.34-15.72Z"/></svg>